<svg width="40" height="36" viewBox="0 0 40 36" fill="none" xmlns="http://www.w3.org/2000/svg" xmlns:xlink="http://www.w3.org/1999/xlink">
<path d="M30.88,6.473C30.96,6.613 31.1,6.713 31.28,6.713C36.08,6.713 40,10.628 40,15.423L40,27.29C40,32.084 36.08,36 31.28,36L8.72,36C3.9,36 0,32.084 0,27.29L0,15.423C0,10.628 3.9,6.713 8.72,6.713C8.88,6.713 9.04,6.633 9.1,6.473L9.22,6.233C9.289,6.088 9.36,5.939 9.432,5.788C9.943,4.71 10.509,3.518 10.86,2.817C11.78,1.019 13.34,0.02 15.28,0L24.7,0C26.64,0.02 28.22,1.019 29.14,2.817C29.455,3.446 29.935,4.46 30.397,5.437C30.493,5.638 30.588,5.838 30.68,6.033L30.88,6.473ZM29.42,14.144C29.42,15.143 30.22,15.942 31.22,15.942C32.22,15.942 33.04,15.143 33.04,14.144C33.04,13.145 32.22,12.326 31.22,12.326C30.22,12.326 29.42,13.145 29.42,14.144ZM16.54,17.241C17.48,16.302 18.7,15.802 20,15.802C21.3,15.802 22.52,16.302 23.44,17.221C24.36,18.14 24.86,19.358 24.86,20.657C24.84,23.334 22.68,25.512 20,25.512C18.7,25.512 17.48,25.012 16.56,24.093C15.64,23.174 15.14,21.956 15.14,20.657L15.14,20.637C15.12,19.378 15.62,18.16 16.54,17.241ZM25.54,26.211C24.12,27.629 22.16,28.508 20,28.508C17.9,28.508 15.94,27.689 14.44,26.211C12.96,24.713 12.14,22.755 12.14,20.657C12.12,18.579 12.94,16.622 14.42,15.123C15.92,13.625 17.9,12.806 20,12.806C22.1,12.806 24.08,13.625 25.56,15.103C27.04,16.602 27.86,18.579 27.86,20.657C27.84,22.835 26.96,24.792 25.54,26.211Z" clip-rule="evenodd" fill-rule="evenodd" fill="#FFFFFF"/>
</svg>
