<svg width="48" height="48" viewBox="0 0 48 48" fill="none" xmlns="http://www.w3.org/2000/svg" xmlns:xlink="http://www.w3.org/1999/xlink">
<path d="M10.5,19.196C10.5,20.024 11.172,20.696 12,20.696C12.828,20.696 13.5,20.024 13.5,19.196L10.5,19.196ZM34.5,19.196C34.5,20.024 35.172,20.696 36,20.696C36.828,20.696 37.5,20.024 37.5,19.196L34.5,19.196ZM13.5,19.196L13.5,15.357L10.5,15.357L10.5,19.196L13.5,19.196ZM13.5,15.357C13.5,12.278 13.998,9.849 15.399,8.179C16.754,6.565 19.238,5.339 24,5.339L24,2.339C18.762,2.339 15.246,3.695 13.101,6.251C11.002,8.752 10.5,12.081 10.5,15.357L13.5,15.357ZM24,5.339C28.762,5.339 31.246,6.565 32.601,8.179C34.002,9.849 34.5,12.278 34.5,15.357L37.5,15.357C37.5,12.081 36.998,8.752 34.899,6.251C32.754,3.695 29.238,2.339 24,2.339L24,5.339ZM34.5,15.357L34.5,19.196L37.5,19.196L37.5,15.357L34.5,15.357Z" fill="#000000"/>
<path d="M27.5,30.713C27.5,32.478 25.992,34.012 24,34.012L24,37.012C27.531,37.012 30.5,34.249 30.5,30.713L27.5,30.713ZM24,34.012C22.008,34.012 20.5,32.478 20.5,30.713L17.5,30.713C17.5,34.249 20.469,37.012 24,37.012L24,34.012ZM20.5,30.713C20.5,28.949 22.008,27.414 24,27.414L24,24.414C20.469,24.414 17.5,27.177 17.5,30.713L20.5,30.713ZM24,27.414C25.992,27.414 27.5,28.949 27.5,30.713L30.5,30.713C30.5,27.177 27.531,24.414 24,24.414L24,27.414Z" fill="#000000"/>
<path d="M34,40.732L14,40.732L14,43.732L34,43.732L34,40.732ZM14,40.732C9.982,40.732 8.063,40.213 7.039,39.23C6.036,38.268 5.5,36.475 5.5,32.634L2.5,32.634C2.5,36.471 2.964,39.477 4.961,41.394C6.937,43.291 10.018,43.732 14,43.732L14,40.732ZM5.5,32.634L5.5,28.794L2.5,28.794L2.5,32.634L5.5,32.634ZM5.5,28.794C5.5,24.953 6.036,23.16 7.039,22.198C8.063,21.215 9.982,20.696 14,20.696L14,17.696C10.018,17.696 6.937,18.137 4.961,20.034C2.964,21.951 2.5,24.958 2.5,28.794L5.5,28.794ZM14,20.696L34,20.696L34,17.696L14,17.696L14,20.696ZM34,20.696C38.018,20.696 39.937,21.215 40.961,22.198C41.964,23.16 42.5,24.953 42.5,28.794L45.5,28.794C45.5,24.958 45.036,21.951 43.039,20.034C41.063,18.137 37.982,17.696 34,17.696L34,20.696ZM42.5,28.794L42.5,32.634L45.5,32.634L45.5,28.794L42.5,28.794ZM42.5,32.634C42.5,36.475 41.964,38.268 40.961,39.23C39.937,40.213 38.018,40.732 34,40.732L34,43.732C37.982,43.732 41.063,43.291 43.039,41.394C45.036,39.477 45.5,36.471 45.5,32.634L42.5,32.634Z" fill="#000000"/>
</svg>
