<svg width="48" height="48" viewBox="0 0 48 48" fill="none" xmlns="http://www.w3.org/2000/svg" xmlns:xlink="http://www.w3.org/1999/xlink">
<path d="M10.5,20C10.5,20.828 11.172,21.5 12,21.5C12.828,21.5 13.5,20.828 13.5,20L10.5,20ZM34.5,20C34.5,20.828 35.172,21.5 36,21.5C36.828,21.5 37.5,20.828 37.5,20L34.5,20ZM13.5,20L13.5,16L10.5,16L10.5,20L13.5,20ZM13.5,16C13.5,12.78 14.001,10.218 15.418,8.458C16.779,6.769 19.257,5.5 24,5.5L24,2.5C18.743,2.5 15.221,3.921 13.082,6.577C10.999,9.162 10.5,12.6 10.5,16L13.5,16ZM24,5.5C28.743,5.5 31.221,6.769 32.582,8.458C33.999,10.218 34.5,12.78 34.5,16L37.5,16C37.5,12.6 37.001,9.162 34.918,6.577C32.779,3.921 29.257,2.5 24,2.5L24,5.5ZM34.5,16L34.5,20L37.5,20L37.5,16L34.5,16Z" fill="#000000"/>
<path d="M27.5,32C27.5,33.933 25.933,35.5 24,35.5L24,38.5C27.59,38.5 30.5,35.59 30.5,32L27.5,32ZM24,35.5C22.067,35.5 20.5,33.933 20.5,32L17.5,32C17.5,35.59 20.41,38.5 24,38.5L24,35.5ZM20.5,32C20.5,30.067 22.067,28.5 24,28.5L24,25.5C20.41,25.5 17.5,28.41 17.5,32L20.5,32ZM24,28.5C25.933,28.5 27.5,30.067 27.5,32L30.5,32C30.5,28.41 27.59,25.5 24,25.5L24,28.5Z" fill="#000000"/>
<path d="M34,42.5L14,42.5L14,45.5L34,45.5L34,42.5ZM14,42.5C9.989,42.5 8.084,41.962 7.061,40.939C6.038,39.916 5.5,38.011 5.5,34L2.5,34C2.5,37.989 2.962,41.084 4.939,43.061C6.916,45.038 10.011,45.5 14,45.5L14,42.5ZM5.5,34L5.5,30L2.5,30L2.5,34L5.5,34ZM5.5,30C5.5,25.989 6.038,24.084 7.061,23.061C8.084,22.038 9.989,21.5 14,21.5L14,18.5C10.011,18.5 6.916,18.962 4.939,20.939C2.962,22.916 2.5,26.011 2.5,30L5.5,30ZM14,21.5L34,21.5L34,18.5L14,18.5L14,21.5ZM34,21.5C38.011,21.5 39.916,22.038 40.939,23.061C41.962,24.084 42.5,25.989 42.5,30L45.5,30C45.5,26.011 45.038,22.916 43.061,20.939C41.084,18.962 37.989,18.5 34,18.5L34,21.5ZM42.5,30L42.5,34L45.5,34L45.5,30L42.5,30ZM42.5,34C42.5,38.011 41.962,39.916 40.939,40.939C39.916,41.962 38.011,42.5 34,42.5L34,45.5C37.989,45.5 41.084,45.038 43.061,43.061C45.038,41.084 45.5,37.989 45.5,34L42.5,34Z" fill="#000000"/>
</svg>
