<svg width="222" height="12" viewBox="0 0 222 12" fill="none" xmlns="http://www.w3.org/2000/svg" xmlns:xlink="http://www.w3.org/1999/xlink">
<path d="M8.976,1.596L10.236,3.836L6.4,5.264L10.236,6.692L8.948,8.988L5.756,6.468L6.344,10.528L3.768,10.528L4.3,6.468L1.108,9.044L-0.236,6.664L3.572,5.236L-0.236,3.864L1.052,1.568L4.328,4.088L3.768,0L6.372,0L5.756,4.088L8.976,1.596Z" fill="#000000"/>
<path d="M23.085,1.596L24.345,3.836L20.509,5.264L24.345,6.692L23.057,8.988L19.865,6.468L20.453,10.528L17.877,10.528L18.409,6.468L15.217,9.044L13.873,6.664L17.681,5.236L13.873,3.864L15.161,1.568L18.437,4.088L17.877,0L20.481,0L19.865,4.088L23.085,1.596Z" fill="#000000"/>
<path d="M37.194,1.596L38.454,3.836L34.618,5.264L38.454,6.692L37.166,8.988L33.974,6.468L34.562,10.528L31.986,10.528L32.518,6.468L29.326,9.044L27.982,6.664L31.79,5.236L27.982,3.864L29.27,1.568L32.546,4.088L31.986,0L34.59,0L33.974,4.088L37.194,1.596Z" fill="#000000"/>
<path d="M51.304,1.596L52.564,3.836L48.728,5.264L52.564,6.692L51.276,8.988L48.084,6.468L48.672,10.528L46.096,10.528L46.628,6.468L43.436,9.044L42.092,6.664L45.9,5.236L42.092,3.864L43.38,1.568L46.656,4.088L46.096,0L48.7,0L48.084,4.088L51.304,1.596Z" fill="#000000"/>
<path d="M65.413,1.596L66.673,3.836L62.837,5.264L66.673,6.692L65.385,8.988L62.193,6.468L62.781,10.528L60.205,10.528L60.737,6.468L57.545,9.044L56.201,6.664L60.009,5.236L56.201,3.864L57.489,1.568L60.765,4.088L60.205,0L62.809,0L62.193,4.088L65.413,1.596Z" fill="#000000"/>
<path d="M79.522,1.596L80.782,3.836L76.946,5.264L80.782,6.692L79.494,8.988L76.302,6.468L76.89,10.528L74.314,10.528L74.846,6.468L71.654,9.044L70.31,6.664L74.118,5.236L70.31,3.864L71.598,1.568L74.874,4.088L74.314,0L76.918,0L76.302,4.088L79.522,1.596Z" fill="#000000"/>
<path d="M93.632,1.596L94.892,3.836L91.056,5.264L94.892,6.692L93.604,8.988L90.412,6.468L91,10.528L88.424,10.528L88.956,6.468L85.764,9.044L84.42,6.664L88.228,5.236L84.42,3.864L85.708,1.568L88.984,4.088L88.424,0L91.028,0L90.412,4.088L93.632,1.596Z" fill="#000000"/>
<path d="M107.741,1.596L109.001,3.836L105.165,5.264L109.001,6.692L107.713,8.988L104.521,6.468L105.109,10.528L102.533,10.528L103.065,6.468L99.873,9.044L98.529,6.664L102.337,5.236L98.529,3.864L99.817,1.568L103.093,4.088L102.533,0L105.137,0L104.521,4.088L107.741,1.596Z" fill="#000000"/>
<path d="M121.851,1.596L123.111,3.836L119.275,5.264L123.111,6.692L121.823,8.988L118.631,6.468L119.219,10.528L116.643,10.528L117.175,6.468L113.983,9.044L112.639,6.664L116.447,5.236L112.639,3.864L113.927,1.568L117.203,4.088L116.643,0L119.247,0L118.631,4.088L121.851,1.596Z" fill="#000000"/>
<path d="M135.96,1.596L137.22,3.836L133.384,5.264L137.22,6.692L135.932,8.988L132.74,6.468L133.328,10.528L130.752,10.528L131.284,6.468L128.092,9.044L126.748,6.664L130.556,5.236L126.748,3.864L128.036,1.568L131.312,4.088L130.752,0L133.356,0L132.74,4.088L135.96,1.596Z" fill="#000000"/>
<path d="M150.069,1.596L151.329,3.836L147.493,5.264L151.329,6.692L150.041,8.988L146.849,6.468L147.437,10.528L144.861,10.528L145.393,6.468L142.201,9.044L140.857,6.664L144.665,5.236L140.857,3.864L142.145,1.568L145.421,4.088L144.861,0L147.465,0L146.849,4.088L150.069,1.596Z" fill="#000000"/>
<path d="M164.179,1.596L165.439,3.836L161.603,5.264L165.439,6.692L164.151,8.988L160.959,6.468L161.547,10.528L158.971,10.528L159.503,6.468L156.311,9.044L154.967,6.664L158.775,5.236L154.967,3.864L156.255,1.568L159.531,4.088L158.971,0L161.575,0L160.959,4.088L164.179,1.596Z" fill="#000000"/>
<path d="M178.288,1.596L179.548,3.836L175.712,5.264L179.548,6.692L178.26,8.988L175.068,6.468L175.656,10.528L173.08,10.528L173.612,6.468L170.42,9.044L169.076,6.664L172.884,5.236L169.076,3.864L170.364,1.568L173.64,4.088L173.08,0L175.684,0L175.068,4.088L178.288,1.596Z" fill="#000000"/>
<path d="M192.397,1.596L193.657,3.836L189.821,5.264L193.657,6.692L192.369,8.988L189.177,6.468L189.765,10.528L187.189,10.528L187.721,6.468L184.529,9.044L183.185,6.664L186.993,5.236L183.185,3.864L184.473,1.568L187.749,4.088L187.189,0L189.793,0L189.177,4.088L192.397,1.596Z" fill="#000000"/>
<path d="M206.508,1.596L207.768,3.836L203.932,5.264L207.768,6.692L206.48,8.988L203.288,6.468L203.876,10.528L201.3,10.528L201.832,6.468L198.639,9.044L197.295,6.664L201.104,5.236L197.295,3.864L198.583,1.568L201.86,4.088L201.3,0L203.904,0L203.288,4.088L206.508,1.596Z" fill="#000000"/>
<path d="M220.616,1.596L221.876,3.836L218.04,5.264L221.876,6.692L220.588,8.988L217.396,6.468L217.984,10.528L215.408,10.528L215.94,6.468L212.748,9.044L211.404,6.664L215.212,5.236L211.404,3.864L212.692,1.568L215.968,4.088L215.408,0L218.012,0L217.396,4.088L220.616,1.596Z" fill="#000000"/>
</svg>
