<svg width="222" height="12" viewBox="0 0 222 12" fill="none" xmlns="http://www.w3.org/2000/svg" xmlns:xlink="http://www.w3.org/1999/xlink">
<path d="M8.976,1.943L10.236,4.093L6.4,5.464L10.236,6.834L8.948,9.038L5.756,6.619L6.344,10.516L3.768,10.516L4.3,6.619L1.108,9.092L-0.236,6.807L3.572,5.437L-0.236,4.12L1.052,1.916L4.328,4.335L3.768,0.411L6.372,0.411L5.756,4.335L8.976,1.943Z" fill="#000000"/>
<path d="M23.085,1.943L24.345,4.093L20.509,5.464L24.345,6.834L23.057,9.038L19.865,6.619L20.453,10.516L17.877,10.516L18.409,6.619L15.217,9.092L13.873,6.807L17.681,5.437L13.873,4.12L15.161,1.916L18.437,4.335L17.877,0.411L20.481,0.411L19.865,4.335L23.085,1.943Z" fill="#000000"/>
<path d="M37.194,1.943L38.454,4.093L34.618,5.464L38.454,6.834L37.166,9.038L33.974,6.619L34.562,10.516L31.986,10.516L32.518,6.619L29.326,9.092L27.982,6.807L31.79,5.437L27.982,4.12L29.27,1.916L32.546,4.335L31.986,0.411L34.59,0.411L33.974,4.335L37.194,1.943Z" fill="#000000"/>
<path d="M51.304,1.943L52.564,4.093L48.728,5.464L52.564,6.834L51.276,9.038L48.084,6.619L48.672,10.516L46.096,10.516L46.628,6.619L43.436,9.092L42.092,6.807L45.9,5.437L42.092,4.12L43.38,1.916L46.656,4.335L46.096,0.411L48.7,0.411L48.084,4.335L51.304,1.943Z" fill="#000000"/>
<path d="M65.413,1.943L66.673,4.093L62.837,5.464L66.673,6.834L65.385,9.038L62.193,6.619L62.781,10.516L60.205,10.516L60.737,6.619L57.545,9.092L56.201,6.807L60.009,5.437L56.201,4.12L57.489,1.916L60.765,4.335L60.205,0.411L62.809,0.411L62.193,4.335L65.413,1.943Z" fill="#000000"/>
<path d="M79.522,1.943L80.782,4.093L76.946,5.464L80.782,6.834L79.494,9.038L76.302,6.619L76.89,10.516L74.314,10.516L74.846,6.619L71.654,9.092L70.31,6.807L74.118,5.437L70.31,4.12L71.598,1.916L74.874,4.335L74.314,0.411L76.918,0.411L76.302,4.335L79.522,1.943Z" fill="#000000"/>
<path d="M93.632,1.943L94.892,4.093L91.056,5.464L94.892,6.834L93.604,9.038L90.412,6.619L91,10.516L88.424,10.516L88.956,6.619L85.764,9.092L84.42,6.807L88.228,5.437L84.42,4.12L85.708,1.916L88.984,4.335L88.424,0.411L91.028,0.411L90.412,4.335L93.632,1.943Z" fill="#000000"/>
<path d="M107.741,1.943L109.001,4.093L105.165,5.464L109.001,6.834L107.713,9.038L104.521,6.619L105.109,10.516L102.533,10.516L103.065,6.619L99.873,9.092L98.529,6.807L102.337,5.437L98.529,4.12L99.817,1.916L103.093,4.335L102.533,0.411L105.137,0.411L104.521,4.335L107.741,1.943Z" fill="#000000"/>
<path d="M121.851,1.943L123.111,4.093L119.275,5.464L123.111,6.834L121.823,9.038L118.631,6.619L119.219,10.516L116.643,10.516L117.175,6.619L113.983,9.092L112.639,6.807L116.447,5.437L112.639,4.12L113.927,1.916L117.203,4.335L116.643,0.411L119.247,0.411L118.631,4.335L121.851,1.943Z" fill="#000000"/>
<path d="M135.96,1.943L137.22,4.093L133.384,5.464L137.22,6.834L135.932,9.038L132.74,6.619L133.328,10.516L130.752,10.516L131.284,6.619L128.092,9.092L126.748,6.807L130.556,5.437L126.748,4.12L128.036,1.916L131.312,4.335L130.752,0.411L133.356,0.411L132.74,4.335L135.96,1.943Z" fill="#000000"/>
<path d="M150.069,1.943L151.329,4.093L147.493,5.464L151.329,6.834L150.041,9.038L146.849,6.619L147.437,10.516L144.861,10.516L145.393,6.619L142.201,9.092L140.857,6.807L144.665,5.437L140.857,4.12L142.145,1.916L145.421,4.335L144.861,0.411L147.465,0.411L146.849,4.335L150.069,1.943Z" fill="#000000"/>
<path d="M164.179,1.943L165.439,4.093L161.603,5.464L165.439,6.834L164.151,9.038L160.959,6.619L161.547,10.516L158.971,10.516L159.503,6.619L156.311,9.092L154.967,6.807L158.775,5.437L154.967,4.12L156.255,1.916L159.531,4.335L158.971,0.411L161.575,0.411L160.959,4.335L164.179,1.943Z" fill="#000000"/>
<path d="M178.288,1.943L179.548,4.093L175.712,5.464L179.548,6.834L178.26,9.038L175.068,6.619L175.656,10.516L173.08,10.516L173.612,6.619L170.42,9.092L169.076,6.807L172.884,5.437L169.076,4.12L170.364,1.916L173.64,4.335L173.08,0.411L175.684,0.411L175.068,4.335L178.288,1.943Z" fill="#000000"/>
<path d="M192.397,1.943L193.657,4.093L189.821,5.464L193.657,6.834L192.369,9.038L189.177,6.619L189.765,10.516L187.189,10.516L187.721,6.619L184.529,9.092L183.185,6.807L186.993,5.437L183.185,4.12L184.473,1.916L187.749,4.335L187.189,0.411L189.793,0.411L189.177,4.335L192.397,1.943Z" fill="#000000"/>
<path d="M206.508,1.943L207.768,4.093L203.932,5.464L207.768,6.834L206.48,9.038L203.288,6.619L203.876,10.516L201.3,10.516L201.832,6.619L198.639,9.092L197.295,6.807L201.104,5.437L197.295,4.12L198.583,1.916L201.86,4.335L201.3,0.411L203.904,0.411L203.288,4.335L206.508,1.943Z" fill="#000000"/>
<path d="M220.616,1.943L221.876,4.093L218.04,5.464L221.876,6.834L220.588,9.038L217.396,6.619L217.984,10.516L215.408,10.516L215.94,6.619L212.748,9.092L211.404,6.807L215.212,5.437L211.404,4.12L212.692,1.916L215.968,4.335L215.408,0.411L218.012,0.411L217.396,4.335L220.616,1.943Z" fill="#000000"/>
</svg>
