<svg width="48" height="48" viewBox="0 0 48 48" fill="none" xmlns="http://www.w3.org/2000/svg" xmlns:xlink="http://www.w3.org/1999/xlink">
<path d="M40.5,22.793C40.5,32.458 32.665,40.293 23,40.293L23,43.293C34.322,43.293 43.5,34.115 43.5,22.793L40.5,22.793ZM23,40.293C13.335,40.293 5.5,32.458 5.5,22.793L2.5,22.793C2.5,34.115 11.678,43.293 23,43.293L23,40.293ZM5.5,22.793C5.5,13.128 13.335,5.293 23,5.293L23,2.293C11.678,2.293 2.5,11.471 2.5,22.793L5.5,22.793ZM23,5.293C32.665,5.293 40.5,13.128 40.5,22.793L43.5,22.793C43.5,11.471 34.322,2.293 23,2.293L23,5.293Z" fill="#ADA7A7"/>
<path d="M42.939,44.854C43.525,45.439 44.475,45.439 45.061,44.854C45.646,44.268 45.646,43.318 45.061,42.732L42.939,44.854ZM41.061,38.732C40.475,38.147 39.525,38.147 38.939,38.732C38.354,39.318 38.354,40.268 38.939,40.854L41.061,38.732ZM45.061,42.732L41.061,38.732L38.939,40.854L42.939,44.854L45.061,42.732Z" fill="#ADA7A7"/>
</svg>
