<svg width="44" height="44" viewBox="0 0 44 44" fill="none" xmlns="http://www.w3.org/2000/svg" xmlns:xlink="http://www.w3.org/1999/xlink">
<path d="M15.547,43.5L27.101,43.5L27.101,40.5L15.547,40.5L15.547,43.5ZM27.101,43.5C32.076,43.5 35.948,42.474 38.532,39.79C41.102,37.121 42.081,33.136 42.081,28L39.081,28C39.081,32.864 38.133,35.879 36.371,37.71C34.622,39.526 31.755,40.5 27.101,40.5L27.101,43.5ZM42.081,28L42.081,16L39.081,16L39.081,28L42.081,28ZM42.081,16C42.081,10.864 41.102,6.879 38.532,4.21C35.948,1.526 32.076,0.5 27.101,0.5L27.101,3.5C31.755,3.5 34.622,4.474 36.371,6.29C38.133,8.121 39.081,11.136 39.081,16L42.081,16ZM27.101,0.5L15.547,0.5L15.547,3.5L27.101,3.5L27.101,0.5ZM15.547,0.5C10.572,0.5 6.7,1.526 4.116,4.21C1.546,6.879 0.567,10.864 0.567,16L3.567,16C3.567,11.136 4.515,8.121 6.277,6.29C8.026,4.474 10.893,3.5 15.547,3.5L15.547,0.5ZM0.567,16L0.567,28L3.567,28L3.567,16L0.567,16ZM0.567,28C0.567,33.136 1.546,37.121 4.116,39.79C6.7,42.474 10.572,43.5 15.547,43.5L15.547,40.5C10.893,40.5 8.026,39.526 6.277,37.71C4.515,35.879 3.567,32.864 3.567,28L0.567,28Z" fill="#ADA7A7"/>
</svg>
