<svg width="30" height="16" viewBox="0 0 30 16" fill="none" xmlns="http://www.w3.org/2000/svg" xmlns:xlink="http://www.w3.org/1999/xlink">
<path d="M27.42,0.42C27.234,0.232 27.012,0.083 26.769,-0.018C26.525,-0.12 26.264,-0.172 26,-0.172C25.736,-0.172 25.474,-0.12 25.23,-0.018C24.987,0.083 24.766,0.232 24.58,0.42L15.42,9.58C15.234,9.767 15.013,9.916 14.769,10.018C14.525,10.119 14.264,10.171 14,10.171C13.736,10.171 13.474,10.119 13.23,10.018C12.987,9.916 12.766,9.767 12.58,9.58L3.42,0.42C3.234,0.232 3.013,0.083 2.769,-0.018C2.525,-0.12 2.264,-0.172 2,-0.172C1.736,-0.172 1.474,-0.12 1.23,-0.018C0.987,0.083 0.766,0.232 0.58,0.42C0.207,0.794 -0.002,1.301 -0.002,1.83C-0.002,2.358 0.207,2.865 0.58,3.24L9.76,12.42C10.885,13.543 12.41,14.174 14,14.174C15.59,14.174 17.115,13.543 18.24,12.42L27.42,3.24C27.792,2.865 28.001,2.358 28.001,1.83C28.001,1.301 27.792,0.794 27.42,0.42Z" fill="#000000"/>
</svg>
