<svg width="72" height="80" viewBox="0 0 72 80" fill="none" xmlns="http://www.w3.org/2000/svg" xmlns:xlink="http://www.w3.org/1999/xlink">
<path d="M51.968,31.733C57.662,28.373 61.333,23.173 61.333,17.333C61.333,7.223 50.364,-1 36.888,-1L3.555,-1C1.101,-1 -0.89,0.493 -0.89,2.333C-0.89,4.173 1.101,5.667 3.555,5.667L36.888,5.667C45.466,5.667 52.444,10.9 52.444,17.333C52.444,23.767 45.466,29 36.888,29L12.444,29C9.99,29 7.999,30.493 7.999,32.333C7.999,34.173 9.99,35.667 12.444,35.667L36.888,35.667C50.364,35.667 61.333,43.89 61.333,54C61.333,64.11 50.364,72.333 36.888,72.333L3.555,72.333C1.101,72.333 -0.89,73.827 -0.89,75.667C-0.89,77.507 1.101,79 3.555,79L36.888,79C55.27,79 70.222,67.787 70.222,54C70.222,44.287 62.782,35.87 51.968,31.733Z" fill="#21AA93"/>
</svg>
