<svg width="48" height="48" viewBox="0 0 48 48" fill="none" xmlns="http://www.w3.org/2000/svg" xmlns:xlink="http://www.w3.org/1999/xlink">
<path d="M35,22.078C27.832,22.078 22,27.91 22,35.078C22,42.204 27.832,48 35,48C42.168,48 48,42.168 48,35C48,27.874 42.168,22.078 35,22.078ZM35,46C28.936,46 24,41.1 24,35.078C24,29.012 28.936,24.078 35,24.078C41.064,24.078 46,28.978 46,35C46,41.066 41.064,46 35,46ZM37.708,36.292C38.098,36.682 38.098,37.316 37.708,37.706C37.512,37.902 37.256,37.998 37,37.998C36.744,37.998 36.488,37.9 36.292,37.706L34.292,35.706C34.104,35.518 34,35.264 34,34.998L34,30.998C34,30.446 34.448,29.998 35,29.998C35.552,29.998 36,30.446 36,30.998L36,34.584L37.708,36.292ZM39,4L36,4L36,1C36,0.448 35.552,0 35,0C34.448,0 34,0.448 34,1L34,4L14,4L14,1C14,0.448 13.552,0 13,0C12.448,0 12,0.448 12,1L12,4L9,4C4.038,4 0,8.038 0,13L0,39C0,43.962 4.038,48 9,48L21,48C21.552,48 22,47.552 22,47C22,46.448 21.552,46 21,46L9,46C5.14,46 2,42.86 2,39L2,18L46,18L46,21C46,21.552 46.448,22 47,22C47.552,22 48,21.552 48,21L48,13C48,8.038 43.962,4 39,4ZM2,16L2,13C2,9.14 5.14,6 9,6L39,6C42.86,6 46,9.14 46,13L46,16L2,16Z" fill="#21AA93"/>
</svg>
