<svg width="44" height="44" viewBox="0 0 44 44" fill="none" xmlns="http://www.w3.org/2000/svg" xmlns:xlink="http://www.w3.org/1999/xlink">
<path d="M15.547,42.535L27.101,42.535L27.101,39.535L15.547,39.535L15.547,42.535ZM27.101,42.535C32.076,42.535 35.948,41.509 38.532,38.826C41.102,36.156 42.081,32.172 42.081,27.035L39.081,27.035C39.081,31.899 38.133,34.914 36.371,36.745C34.622,38.561 31.755,39.535 27.101,39.535L27.101,42.535ZM42.081,27.035L42.081,15.035L39.081,15.035L39.081,27.035L42.081,27.035ZM42.081,15.035C42.081,9.899 41.102,5.914 38.532,3.245C35.948,0.561 32.076,-0.465 27.101,-0.465L27.101,2.535C31.755,2.535 34.622,3.509 36.371,5.326C38.133,7.156 39.081,10.171 39.081,15.035L42.081,15.035ZM27.101,-0.465L15.547,-0.465L15.547,2.535L27.101,2.535L27.101,-0.465ZM15.547,-0.465C10.572,-0.465 6.7,0.561 4.116,3.245C1.546,5.914 0.567,9.899 0.567,15.035L3.567,15.035C3.567,10.171 4.515,7.156 6.277,5.326C8.026,3.509 10.893,2.535 15.547,2.535L15.547,-0.465ZM0.567,15.035L0.567,27.035L3.567,27.035L3.567,15.035L0.567,15.035ZM0.567,27.035C0.567,32.172 1.546,36.156 4.116,38.826C6.7,41.509 10.572,42.535 15.547,42.535L15.547,39.535C10.893,39.535 8.026,38.561 6.277,36.745C4.515,34.914 3.567,31.899 3.567,27.035L0.567,27.035Z" fill="#ADA7A7"/>
</svg>
