<svg width="48" height="48" viewBox="0 0 48 48" fill="none" xmlns="http://www.w3.org/2000/svg" xmlns:xlink="http://www.w3.org/1999/xlink">
<path d="M18,24C24.618,24 30,18.618 30,12C30,5.382 24.618,0 18,0C11.382,0 6,5.382 6,12C6,18.618 11.382,24 18,24ZM18,2C23.514,2 28,6.486 28,12C28,17.514 23.514,22 18,22C12.486,22 8,17.514 8,12C8,6.486 12.486,2 18,2ZM43,22L31,22C28.242,22 26,24.244 26,27L26,43C26,45.756 28.242,48 31,48L43,48C45.758,48 48,45.756 48,43L48,27C48,24.244 45.758,22 43,22ZM46,43C46,44.654 44.654,46 43,46L31,46C29.346,46 28,44.654 28,43L28,27C28,25.346 29.346,24 31,24L43,24C44.654,24 46,25.346 46,27L46,43ZM42,28.994C42,29.546 41.552,29.994 41,29.994L33,29.994C32.448,29.994 32,29.546 32,28.994C32,28.442 32.448,27.994 33,27.994L41,27.994C41.552,27.994 42,28.442 42,28.994ZM42,35C42,35.552 41.552,36 41,36L33,36C32.448,36 32,35.552 32,35C32,34.448 32.448,34 33,34L41,34C41.552,34 42,34.448 42,35ZM42,40.994C42,41.546 41.552,41.994 41,41.994L33,41.994C32.448,41.994 32,41.546 32,40.994C32,40.442 32.448,39.994 33,39.994L41,39.994C41.552,39.994 42,40.442 42,40.994ZM21.984,29.438C21.886,29.982 21.362,30.344 20.826,30.248C19.896,30.084 18.946,30 18,30C9.178,30 2,37.178 2,46L2,47C2,47.552 1.552,48 1,48C0.448,48 0,47.552 0,47L0,46C0,36.076 8.074,28 18,28C19.062,28 20.13,28.094 21.174,28.28C21.718,28.376 22.082,28.896 21.984,29.44L21.984,29.438Z" fill="#000000"/>
</svg>
