<svg width="44" height="44" viewBox="0 0 44 44" fill="none" xmlns="http://www.w3.org/2000/svg" xmlns:xlink="http://www.w3.org/1999/xlink">
<path d="M15.548,43.018L27.102,43.018L27.102,40.018L15.548,40.018L15.548,43.018ZM27.102,43.018C32.077,43.018 35.949,41.992 38.533,39.308C41.103,36.639 42.082,32.654 42.082,27.518L39.082,27.518C39.082,32.381 38.134,35.397 36.372,37.227C34.623,39.044 31.756,40.018 27.102,40.018L27.102,43.018ZM42.082,27.518L42.082,15.518L39.082,15.518L39.082,27.518L42.082,27.518ZM42.082,15.518C42.082,10.381 41.103,6.397 38.533,3.727C35.949,1.043 32.077,0.018 27.102,0.018L27.102,3.018C31.756,3.018 34.623,3.992 36.372,5.808C38.134,7.638 39.082,10.654 39.082,15.518L42.082,15.518ZM27.102,0.018L15.548,0.018L15.548,3.018L27.102,3.018L27.102,0.018ZM15.548,0.018C10.573,0.018 6.701,1.043 4.117,3.727C1.547,6.397 0.568,10.381 0.568,15.518L3.568,15.518C3.568,10.654 4.516,7.638 6.278,5.808C8.027,3.992 10.894,3.018 15.548,3.018L15.548,0.018ZM0.568,15.518L0.568,27.518L3.568,27.518L3.568,15.518L0.568,15.518ZM0.568,27.518C0.568,32.654 1.547,36.639 4.117,39.308C6.701,41.992 10.573,43.018 15.548,43.018L15.548,40.018C10.894,40.018 8.027,39.044 6.278,37.227C4.516,35.397 3.568,32.381 3.568,27.518L0.568,27.518Z" fill="#ADA7A7"/>
</svg>
