<svg width="44" height="48" viewBox="0 0 44 48" fill="none" xmlns="http://www.w3.org/2000/svg" xmlns:xlink="http://www.w3.org/1999/xlink">
<path d="M31,27C31,27.552 30.552,28 30,28L23,28L23,35C23,35.552 22.552,36 22,36C21.448,36 21,35.552 21,35L21,28L14,28C13.448,28 13,27.552 13,27C13,26.448 13.448,26 14,26L21,26L21,19C21,18.448 21.448,18 22,18C22.552,18 23,18.448 23,19L23,26L30,26C30.552,26 31,26.448 31,27ZM44,9C44,9.552 43.552,10 43,10L40,10C40,10.03 40,10.06 39.996,10.092L37.256,39.826C36.826,44.486 32.972,48 28.294,48L15.75,48C11.076,48 7.224,44.492 6.79,39.84L4.006,10.094C4.004,10.062 4.002,10.032 4.002,10L1.002,10C0.45,10 0.002,9.552 0.002,9C0.002,8.448 0.45,8 1.002,8L11.058,8C11.558,3.506 15.378,0 20.002,0L24.002,0C28.626,0 32.448,3.506 32.946,8L43.002,8C43.554,8 44,8.448 44,9ZM13.072,8L30.928,8C30.442,4.612 27.52,2 24,2L20,2C16.48,2 13.558,4.612 13.072,8ZM37.996,10L6.004,10L8.778,39.652C9.116,43.272 12.112,46 15.746,46L28.29,46C31.93,46 34.926,43.268 35.26,39.642L37.992,10L37.996,10Z" fill="#131313"/>
</svg>
