<svg width="44" height="44" viewBox="0 0 44 44" fill="none" xmlns="http://www.w3.org/2000/svg" xmlns:xlink="http://www.w3.org/1999/xlink">
<path d="M15.548,42.535L27.102,42.535L27.102,39.535L15.548,39.535L15.548,42.535ZM27.102,42.535C32.077,42.535 35.949,41.509 38.533,38.826C41.103,36.156 42.082,32.172 42.082,27.035L39.082,27.035C39.082,31.899 38.134,34.914 36.372,36.745C34.623,38.561 31.756,39.535 27.102,39.535L27.102,42.535ZM42.082,27.035L42.082,15.035L39.082,15.035L39.082,27.035L42.082,27.035ZM42.082,15.035C42.082,9.899 41.103,5.914 38.533,3.245C35.949,0.561 32.077,-0.465 27.102,-0.465L27.102,2.535C31.756,2.535 34.623,3.509 36.372,5.326C38.134,7.156 39.082,10.171 39.082,15.035L42.082,15.035ZM27.102,-0.465L15.548,-0.465L15.548,2.535L27.102,2.535L27.102,-0.465ZM15.548,-0.465C10.573,-0.465 6.701,0.561 4.117,3.245C1.547,5.914 0.568,9.899 0.568,15.035L3.568,15.035C3.568,10.171 4.516,7.156 6.278,5.326C8.027,3.509 10.894,2.535 15.548,2.535L15.548,-0.465ZM0.568,15.035L0.568,27.035L3.568,27.035L3.568,15.035L0.568,15.035ZM0.568,27.035C0.568,32.172 1.547,36.156 4.117,38.826C6.701,41.509 10.573,42.535 15.548,42.535L15.548,39.535C10.894,39.535 8.027,38.561 6.278,36.745C4.516,34.914 3.568,31.899 3.568,27.035L0.568,27.035Z" fill="#ADA7A7"/>
</svg>
