<svg width="44" height="44" viewBox="0 0 44 44" fill="none" xmlns="http://www.w3.org/2000/svg" xmlns:xlink="http://www.w3.org/1999/xlink">
<path d="M15.547,42.123L27.101,42.123L27.101,39.123L15.547,39.123L15.547,42.123ZM27.101,42.123C32.076,42.123 35.948,41.097 38.532,38.413C41.102,35.744 42.081,31.759 42.081,26.623L39.081,26.623C39.081,31.487 38.133,34.502 36.371,36.333C34.622,38.149 31.755,39.123 27.101,39.123L27.101,42.123ZM42.081,26.623L42.081,14.623L39.081,14.623L39.081,26.623L42.081,26.623ZM42.081,14.623C42.081,9.487 41.102,5.502 38.532,2.833C35.948,0.149 32.076,-0.877 27.101,-0.877L27.101,2.123C31.755,2.123 34.622,3.097 36.371,4.913C38.133,6.744 39.081,9.759 39.081,14.623L42.081,14.623ZM27.101,-0.877L15.547,-0.877L15.547,2.123L27.101,2.123L27.101,-0.877ZM15.547,-0.877C10.572,-0.877 6.7,0.149 4.116,2.833C1.546,5.502 0.567,9.487 0.567,14.623L3.567,14.623C3.567,9.759 4.515,6.744 6.277,4.913C8.026,3.097 10.893,2.123 15.547,2.123L15.547,-0.877ZM0.567,14.623L0.567,26.623L3.567,26.623L3.567,14.623L0.567,14.623ZM0.567,26.623C0.567,31.759 1.546,35.744 4.116,38.413C6.7,41.097 10.572,42.123 15.547,42.123L15.547,39.123C10.893,39.123 8.026,38.149 6.277,36.333C4.515,34.502 3.567,31.487 3.567,26.623L0.567,26.623Z" fill="#ADA7A7"/>
</svg>
