<svg width="42" height="42" viewBox="0 0 42 42" fill="none" xmlns="http://www.w3.org/2000/svg" xmlns:xlink="http://www.w3.org/1999/xlink">
<path d="M39.5,20L40.5,20L40.5,19.999L39.5,20ZM21.5,22.833L21.278,21.858L20.5,22.035L20.5,22.833L21.5,22.833ZM18.5,21.501L17.5,21.501L17.5,21.501L18.5,21.501ZM20,20.001L20,19.001L20,19.001L20,20.001ZM16.25,16.251L15.25,16.251L16.25,16.251ZM13.25,16.251L12.25,16.251L12.25,16.251L13.25,16.251ZM20,-0.5C15.945,-0.5 11.982,0.702 8.611,2.955L9.722,4.618C12.764,2.585 16.341,1.5 20,1.5L20,-0.5ZM8.611,2.955C5.24,5.207 2.612,8.409 1.06,12.155L2.908,12.92C4.308,9.54 6.68,6.651 9.722,4.618L8.611,2.955ZM1.06,12.155C-0.491,15.901 -0.897,20.023 -0.106,23.999L1.855,23.609C1.142,20.021 1.508,16.301 2.908,12.92L1.06,12.155ZM-0.106,23.999C0.685,27.976 2.637,31.629 5.504,34.496L6.919,33.081C4.331,30.494 2.569,27.198 1.855,23.609L-0.106,23.999ZM5.504,34.496C8.371,37.363 12.024,39.315 16.001,40.106L16.391,38.145C12.802,37.431 9.506,35.669 6.919,33.081L5.504,34.496ZM16.001,40.106C19.977,40.897 24.099,40.491 27.845,38.94L27.08,37.092C23.699,38.492 19.979,38.858 16.391,38.145L16.001,40.106ZM27.845,38.94C31.591,37.388 34.793,34.76 37.045,31.389L35.382,30.278C33.349,33.32 30.46,35.692 27.08,37.092L27.845,38.94ZM37.045,31.389C39.298,28.018 40.5,24.055 40.5,20L38.5,20C38.5,23.659 37.415,27.236 35.382,30.278L37.045,31.389ZM40.5,19.999C40.494,14.564 38.332,9.354 34.489,5.511L33.075,6.925C36.543,10.393 38.494,15.096 38.5,20.001L40.5,19.999ZM34.489,5.511C30.646,1.668 25.436,-0.494 20.001,-0.5L19.999,1.5C24.904,1.506 29.607,3.457 33.075,6.925L34.489,5.511ZM20,31C19.753,31 19.511,30.927 19.306,30.789L18.194,32.452C18.729,32.809 19.357,33 20,33L20,31ZM19.306,30.789C19.1,30.652 18.94,30.457 18.845,30.228L16.997,30.994C17.243,31.588 17.66,32.095 18.194,32.452L19.306,30.789ZM18.845,30.228C18.751,30 18.726,29.749 18.774,29.506L16.813,29.116C16.687,29.746 16.752,30.4 16.997,30.994L18.845,30.228ZM18.774,29.506C18.822,29.264 18.941,29.041 19.116,28.866L17.702,27.452C17.247,27.906 16.938,28.486 16.813,29.116L18.774,29.506ZM19.116,28.866C19.291,28.691 19.514,28.572 19.756,28.524L19.366,26.563C18.736,26.688 18.157,26.997 17.702,27.452L19.116,28.866ZM19.756,28.524C19.999,28.476 20.25,28.501 20.478,28.595L21.244,26.747C20.65,26.501 19.996,26.437 19.366,26.563L19.756,28.524ZM20.478,28.595C20.707,28.69 20.902,28.85 21.039,29.056L22.702,27.944C22.345,27.41 21.838,26.993 21.244,26.747L20.478,28.595ZM21.039,29.056C21.177,29.261 21.25,29.503 21.25,29.75L23.25,29.75C23.25,29.107 23.059,28.479 22.702,27.944L21.039,29.056ZM21.25,29.75C21.25,30.082 21.118,30.4 20.884,30.634L22.298,32.048C22.908,31.439 23.25,30.612 23.25,29.75L21.25,29.75ZM20.884,30.634C20.65,30.868 20.332,31 20,31L20,33C20.862,33 21.689,32.658 22.298,32.048L20.884,30.634ZM20.5,22.833L20.5,23.001L22.5,23.001L22.5,22.833L20.5,22.833ZM20.5,23.001C20.5,23.134 20.447,23.261 20.354,23.354L21.768,24.769C22.237,24.3 22.5,23.664 22.5,23.001L20.5,23.001ZM20.354,23.354C20.26,23.448 20.133,23.501 20,23.501L20,25.501C20.663,25.501 21.299,25.238 21.768,24.769L20.354,23.354ZM20,23.501C19.867,23.501 19.74,23.448 19.646,23.354L18.232,24.769C18.701,25.238 19.337,25.501 20,25.501L20,23.501ZM19.646,23.354C19.553,23.261 19.5,23.134 19.5,23.001L17.5,23.001C17.5,23.664 17.763,24.3 18.232,24.769L19.646,23.354ZM19.5,23.001L19.5,21.501L17.5,21.501L17.5,23.001L19.5,23.001ZM19.5,21.501C19.5,21.368 19.553,21.241 19.646,21.147L18.232,19.733C17.763,20.202 17.5,20.838 17.5,21.501L19.5,21.501ZM19.646,21.147C19.74,21.054 19.867,21.001 20,21.001L20,19.001C19.337,19.001 18.701,19.264 18.232,19.733L19.646,21.147ZM20,21.001C20.939,21.001 21.858,20.722 22.639,20.2L21.528,18.537C21.076,18.84 20.544,19.001 20,19.001L20,21.001ZM22.639,20.2C23.42,19.678 24.029,18.937 24.388,18.069L22.541,17.303C22.333,17.806 21.98,18.235 21.528,18.537L22.639,20.2ZM24.388,18.069C24.748,17.201 24.842,16.246 24.659,15.324L22.697,15.714C22.803,16.248 22.749,16.801 22.541,17.303L24.388,18.069ZM24.659,15.324C24.475,14.403 24.023,13.556 23.359,12.892L21.945,14.306C22.329,14.691 22.591,15.181 22.697,15.714L24.659,15.324ZM23.359,12.892C22.694,12.228 21.848,11.775 20.927,11.592L20.537,13.554C21.07,13.66 21.56,13.922 21.945,14.306L23.359,12.892ZM20.927,11.592C20.005,11.409 19.05,11.503 18.182,11.862L18.948,13.71C19.45,13.502 20.003,13.448 20.537,13.554L20.927,11.592ZM18.182,11.862C17.314,12.222 16.572,12.831 16.051,13.612L17.713,14.723C18.016,14.271 18.445,13.918 18.948,13.71L18.182,11.862ZM16.051,13.612C15.529,14.393 15.25,15.311 15.25,16.251L17.25,16.251C17.25,15.707 17.411,15.175 17.713,14.723L16.051,13.612ZM15.25,16.251C15.25,16.384 15.197,16.511 15.104,16.604L16.518,18.019C16.987,17.55 17.25,16.914 17.25,16.251L15.25,16.251ZM15.104,16.604C15.01,16.698 14.883,16.751 14.75,16.751L14.75,18.751C15.413,18.751 16.049,18.488 16.518,18.019L15.104,16.604ZM14.75,16.751C14.617,16.751 14.49,16.698 14.396,16.604L12.982,18.019C13.451,18.488 14.087,18.751 14.75,18.751L14.75,16.751ZM14.396,16.604C14.303,16.511 14.25,16.384 14.25,16.251L12.25,16.251C12.25,16.914 12.513,17.55 12.982,18.019L14.396,16.604ZM14.25,16.251C14.25,15.169 14.556,14.108 15.132,13.192L13.439,12.128C12.662,13.363 12.25,14.792 12.25,16.251L14.25,16.251ZM15.132,13.192C15.708,12.275 16.531,11.54 17.506,11.071L16.639,9.269C15.324,9.901 14.215,10.892 13.439,12.128L15.132,13.192ZM17.506,11.071C18.481,10.601 19.569,10.417 20.645,10.538L20.869,8.551C19.42,8.387 17.953,8.636 16.639,9.269L17.506,11.071ZM20.645,10.538C21.72,10.659 22.74,11.082 23.586,11.757L24.833,10.194C23.693,9.284 22.319,8.714 20.869,8.551L20.645,10.538ZM23.586,11.757C24.432,12.432 25.071,13.332 25.428,14.354L27.316,13.694C26.834,12.317 25.974,11.103 24.833,10.194L23.586,11.757ZM25.428,14.354C25.785,15.376 25.847,16.478 25.606,17.533L27.555,17.978C27.88,16.556 27.797,15.071 27.316,13.694L25.428,14.354ZM25.606,17.533C25.364,18.588 24.83,19.554 24.065,20.319L25.479,21.733C26.51,20.702 27.23,19.401 27.555,17.978L25.606,17.533ZM24.065,20.319C23.299,21.084 22.333,21.617 21.278,21.858L21.722,23.808C23.145,23.484 24.447,22.765 25.479,21.733L24.065,20.319Z" fill="#000000"/>
</svg>
