<svg width="42" height="42" viewBox="0 0 42 42" fill="none" xmlns="http://www.w3.org/2000/svg" xmlns:xlink="http://www.w3.org/1999/xlink">
<path d="M31.865,0L8.385,0C3.757,0.006 0.006,3.757 0,8.385L0,31.865C0.006,36.493 3.757,40.244 8.385,40.25L31.865,40.25C36.493,40.244 40.244,36.493 40.25,31.865L40.25,8.385C40.244,3.757 36.493,0.006 31.865,0ZM33.542,13.549L18.022,29.069C16.712,30.379 14.589,30.379 13.278,29.07C13.278,29.07 13.278,29.069 13.277,29.069L6.708,22.501C6.052,21.845 6.052,20.781 6.708,20.125C7.365,19.469 8.429,19.469 9.085,20.125L15.652,26.693L31.174,11.173C31.83,10.519 32.892,10.521 33.546,11.177C34.2,11.833 34.198,12.895 33.542,13.549Z" fill="#009EE2"/>
</svg>
