<svg width="50" height="48" viewBox="0 0 50 48" fill="none" xmlns="http://www.w3.org/2000/svg" xmlns:xlink="http://www.w3.org/1999/xlink">
<path d="M47.468,45.82C46.714,47.186 45.334,48 43.774,48L39,48L39,46L43.774,46C44.594,46 45.32,45.572 45.718,44.854C46.114,44.136 46.092,43.294 45.656,42.598L43.362,38.946L45.056,37.884L47.35,41.536C48.18,42.854 48.224,44.458 47.47,45.822L47.468,45.82ZM41.864,32.8L39.5,29.036C38.72,27.794 37.404,27.06 35.91,27.06C34.442,27.066 33.104,27.816 32.332,29.066L30.056,32.762L31.76,33.812L34.036,30.116C34.442,29.458 35.146,29.062 35.918,29.06L35.926,29.06C36.694,29.06 37.396,29.448 37.806,30.1L40.17,33.864L41.864,32.8ZM26.286,44.862C25.888,44.15 25.906,43.308 26.334,42.614L28.612,38.918L26.908,37.868L24.63,41.566C23.816,42.886 23.782,44.484 24.54,45.838C25.298,47.192 26.674,48 28.224,48L32.998,48L32.998,46L28.224,46C27.408,46 26.682,45.572 26.286,44.862ZM21.048,47.79C21.09,47.864 21.14,47.928 21.184,47.998L11.67,47.998C9.108,47.998 6.97,46.078 6.698,43.532L3.102,10L0,10L0,8L12,8L12,5C12,2.242 14.244,0 17,0L27,0C29.756,0 32,2.242 32,5L32,8L44,8L44,10L40.896,10L39.384,23.838C38.768,23.554 38.118,23.346 37.44,23.218L38.884,9.998L5.112,9.998L8.686,43.316C8.85,44.846 10.132,45.998 11.67,45.998L20.316,45.998C20.492,46.61 20.724,47.212 21.048,47.79ZM14,8L30,8L30,5C30,3.346 28.654,2 27,2L17,2C15.346,2 14,3.346 14,5L14,8Z" fill="#131313"/>
</svg>
