<svg width="44" height="44" viewBox="0 0 44 44" fill="none" xmlns="http://www.w3.org/2000/svg" xmlns:xlink="http://www.w3.org/1999/xlink">
<path d="M15.548,43.5L27.102,43.5L27.102,40.5L15.548,40.5L15.548,43.5ZM27.102,43.5C32.077,43.5 35.949,42.474 38.533,39.79C41.103,37.121 42.082,33.136 42.082,28L39.082,28C39.082,32.864 38.134,35.879 36.372,37.71C34.623,39.526 31.756,40.5 27.102,40.5L27.102,43.5ZM42.082,28L42.082,16L39.082,16L39.082,28L42.082,28ZM42.082,16C42.082,10.864 41.103,6.879 38.533,4.21C35.949,1.526 32.077,0.5 27.102,0.5L27.102,3.5C31.756,3.5 34.623,4.474 36.372,6.29C38.134,8.121 39.082,11.136 39.082,16L42.082,16ZM27.102,0.5L15.548,0.5L15.548,3.5L27.102,3.5L27.102,0.5ZM15.548,0.5C10.573,0.5 6.701,1.526 4.117,4.21C1.547,6.879 0.568,10.864 0.568,16L3.568,16C3.568,11.136 4.516,8.121 6.278,6.29C8.027,4.474 10.894,3.5 15.548,3.5L15.548,0.5ZM0.568,16L0.568,28L3.568,28L3.568,16L0.568,16ZM0.568,28C0.568,33.136 1.547,37.121 4.117,39.79C6.701,42.474 10.573,43.5 15.548,43.5L15.548,40.5C10.894,40.5 8.027,39.526 6.278,37.71C4.516,35.879 3.568,32.864 3.568,28L0.568,28Z" fill="#ADA7A7"/>
</svg>
