<svg width="48" height="48" viewBox="0 0 48 48" fill="none" xmlns="http://www.w3.org/2000/svg" xmlns:xlink="http://www.w3.org/1999/xlink">
<path d="M46.911,8L35.941,8C35.395,3.506 31.228,0 26.183,0L21.819,0C16.775,0 12.605,3.506 12.062,8L1.091,8C0.489,8 0,8.448 0,9C0,9.552 0.489,10 1.091,10L4.364,10C4.364,10.03 4.364,10.062 4.368,10.092L7.405,39.838C7.881,44.492 12.083,48 17.18,48L30.865,48C35.971,48 40.176,44.486 40.643,39.826L43.632,10.092C43.634,10.062 43.636,10.03 43.636,10L46.909,10C47.511,10 48,9.552 48,9C48,8.448 47.513,8 46.911,8ZM21.819,2L26.183,2C30.023,2 33.211,4.612 33.741,8L14.261,8C14.791,4.612 17.979,2 21.819,2ZM38.472,39.642C38.107,43.266 34.839,46 30.868,46L17.183,46C13.218,46 9.95,43.27 9.581,39.652L6.554,10L41.454,10L38.472,39.642ZM32.537,26.3C32.958,26.694 32.949,27.328 32.519,27.714C32.305,27.904 32.031,28 31.756,28C31.472,28 31.188,27.9 30.977,27.7L25.489,22.56C25.367,22.448 25.234,22.354 25.09,22.274L25.09,37C25.09,37.552 24.601,38 23.999,38C23.397,38 22.908,37.552 22.908,37L22.908,22.274C22.764,22.354 22.626,22.45 22.5,22.566L17.021,27.698C16.604,28.094 15.911,28.102 15.479,27.714C15.049,27.328 15.04,26.694 15.461,26.3L20.949,21.16C21.786,20.392 22.882,20.006 23.977,20C23.984,20 23.99,20 23.999,20C24.005,20 24.012,20 24.019,20C25.114,20.004 26.207,20.388 27.04,21.152L32.537,26.3Z" fill="#21AA93"/>
</svg>
