<svg width="44" height="44" viewBox="0 0 44 44" fill="none" xmlns="http://www.w3.org/2000/svg" xmlns:xlink="http://www.w3.org/1999/xlink">
<path d="M15.547,43.018L27.101,43.018L27.101,40.018L15.547,40.018L15.547,43.018ZM27.101,43.018C32.076,43.018 35.948,41.992 38.532,39.308C41.102,36.639 42.081,32.654 42.081,27.518L39.081,27.518C39.081,32.381 38.133,35.397 36.371,37.227C34.622,39.044 31.755,40.018 27.101,40.018L27.101,43.018ZM42.081,27.518L42.081,15.518L39.081,15.518L39.081,27.518L42.081,27.518ZM42.081,15.518C42.081,10.381 41.102,6.397 38.532,3.727C35.948,1.043 32.076,0.018 27.101,0.018L27.101,3.018C31.755,3.018 34.622,3.992 36.371,5.808C38.133,7.638 39.081,10.654 39.081,15.518L42.081,15.518ZM27.101,0.018L15.547,0.018L15.547,3.018L27.101,3.018L27.101,0.018ZM15.547,0.018C10.572,0.018 6.7,1.043 4.116,3.727C1.546,6.397 0.567,10.381 0.567,15.518L3.567,15.518C3.567,10.654 4.515,7.638 6.277,5.808C8.026,3.992 10.893,3.018 15.547,3.018L15.547,0.018ZM0.567,15.518L0.567,27.518L3.567,27.518L3.567,15.518L0.567,15.518ZM0.567,27.518C0.567,32.654 1.546,36.639 4.116,39.308C6.7,41.992 10.572,43.018 15.547,43.018L15.547,40.018C10.893,40.018 8.026,39.044 6.277,37.227C4.515,35.397 3.567,32.381 3.567,27.518L0.567,27.518Z" fill="#ADA7A7"/>
</svg>
