<svg width="48" height="40" viewBox="0 0 48 40" fill="none" xmlns="http://www.w3.org/2000/svg" xmlns:xlink="http://www.w3.org/1999/xlink">
<path d="M43,8L9,8C6.708,8 4.558,6.866 3.256,5.002C4.524,3.188 6.626,2 9,2L47,2C47.552,2 48,1.552 48,1C48,0.448 47.552,0 47,0L9,0C4.03,0 0,4.03 0,9L0,31C0,35.97 4.03,40 9,40L43,40C45.762,40 48,37.762 48,35L48,13C48,10.238 45.762,8 43,8ZM46,35C46,36.654 44.654,38 43,38L9,38C5.14,38 2,34.86 2,31L2,9C2,8.304 2.102,7.632 2.292,6.998C3.984,8.882 6.42,10 9,10L43,10C44.654,10 46,11.346 46,13L46,35ZM42,24C42,25.104 41.104,26 40,26C38.896,26 38,25.104 38,24C38,22.896 38.896,22 40,22C41.104,22 42,22.896 42,24Z" fill="#21AA93"/>
</svg>
