<svg width="78" height="80" viewBox="0 0 78 80" fill="none" xmlns="http://www.w3.org/2000/svg" xmlns:xlink="http://www.w3.org/1999/xlink">
<path d="M71.556,79L11.56,79C7.476,79 3.729,77.327 1.791,74.63C-0.164,71.917 0.031,68.62 2.293,66.033C7.769,59.777 18.302,55.833 29.449,51.66C47.604,44.86 64.756,38.443 62.436,22.723C61.027,13.157 49.409,5.663 35.991,5.663C21.284,5.663 9.324,14.633 9.324,25.663C9.324,27.503 7.333,28.997 4.88,28.997C2.427,28.997 0.436,27.503 0.436,25.663C0.444,10.963 16.396,-1 36,-1C54.178,-1 69.342,8.887 71.28,21.993C74.28,42.333 51.627,50.813 33.427,57.627C23.378,61.387 13.889,64.94 9.729,69.693C9.04,70.477 9.422,71.193 9.618,71.463C9.853,71.787 10.413,72.33 11.564,72.33L71.56,72.33C74.013,72.33 76.004,73.823 76.004,75.663C76.004,77.503 74.013,78.997 71.56,78.997L71.556,79Z" fill="#21AA93"/>
</svg>
